<svg width="512" height="512" viewBox="0 0 512 512" fill="none" xmlns="http://www.w3.org/2000/svg">
<g clip-path="url(#clip0_2_2)">
<path d="M92.5 0.699998C84.5 1.7 74.9 4.3 72.5 6.1C67.2 10.3 65.3 19 68.4 24.8C69.2 26.3 82.5 40.1 97.9 55.5L126 83.5L104.8 104.7L83.5 126L55 97.6C39.3 82 25.5 68.7 24.3 68.1C18.7 65.2 9.09999 67.8 5.59999 73.2C3.19999 76.8 0.999987 87.6 0.399987 99.1C-1.00001 121.5 4.89999 143.4 17.3 162.4C38.6 194.9 77.2 213.4 115.3 209.2C123.7 208.3 137.3 205.1 144 202.6C145 202.2 171.1 227.6 227.8 284.3L310 366.6L308.1 372.2C304 384.2 302.6 393.1 302.6 407C302.6 421.2 303.6 427.8 307.6 440C312.6 455.6 320.6 468.6 332.5 480.6C356.8 505.1 389.9 516 424 510.5C435.3 508.6 439.7 506.7 442.7 502.1C445.2 498.4 445.8 491.4 443.9 487.7C443.3 486.5 430 472.7 414.4 457L386 428.5L407.3 407.2L428.5 386L456.5 414.1C471.9 429.5 485.7 442.8 487.2 443.6C491.3 445.8 498.1 445.4 502.1 442.7C506.7 439.7 508.6 435.3 510.5 424C519.6 367.6 482.8 315 426.5 303.9C410.8 300.8 388.3 302.6 372.2 308.1L366.6 310L284.3 227.8C227.6 171.1 202.2 145 202.6 144C202.9 143.2 204.3 138.7 205.6 134C214.1 104.9 209.3 73.2 192.8 47.9C176.3 22.6 151.3 6.3 121.5 1.5C113.2 0.0999985 99.8 -0.200002 92.5 0.699998Z" fill="white"/>
<path d="M462.5 1.5C460.9 2.4 446.2 13 430 25.3C408.1 41.8 400.1 48.4 398.8 51C397.3 54 397 57.4 397 74V93.5L345.8 144.7L294.5 196L305.3 206.7L316 217.5L367.3 166.2L418.5 115H438C454.6 115 458 114.7 461 113.2C465.5 111 510.7 51.4 511.6 46.4C512.9 39.3 511.6 37.4 494.1 19.6C474.5 -0.300003 470.6 -2.5 462.5 1.5Z" fill="white"/>
<path d="M145.3 294.4C143 295.1 139.7 296.7 137.8 297.8C136 299 115.9 318.5 93.2 341.2L52 382.5L90.8 421.3L129.5 460L172.1 417.3C220.5 368.7 218.5 371.4 218.5 355.5C218.5 344.9 216.6 339.7 209.9 332.5L205.7 327.9L211.6 321.9L217.5 316L206.7 305.3L196 294.5L190.1 300.4L184.1 306.3L179.5 302.1C176.9 299.7 172.7 296.9 170.2 295.7C164.3 293.1 151.4 292.4 145.3 294.4Z" fill="white"/>
<path d="M18.4 416.2C4.79998 430.1 3.79999 431.4 1.39999 439.6C-0.800015 447.1 -1.44985e-05 456.2 3.49999 463.8C7.29999 472.1 39.9 504.7 48.2 508.5C59 513.4 72.4 512.7 81.9 506.5C83.9 505.2 90.7 499 97 492.6L108.5 481L70 442.5C48.8 421.3 31.3 404 31 404C30.7 404 25 409.5 18.4 416.2Z" fill="white"/>
</g>
<defs>
<clipPath id="clip0_2_2">
<rect width="512" height="512" fill="white"/>
</clipPath>
</defs>
</svg>
